DataType=double
version=3
OpenSimVersion=4.4-2022-07-23-0e9fedc
endheader
time	Glut_Max_l	Glut_Med_l	Rect_Fem_l	Vast_Lat_l	Bice_Fem_l	Tibi_Ant_l	Gast_Med_l	Sol_l	Gast_Lat_l	Pero_Lon_l	Glut_Max_r	Glut_Med_r	Rect_Fem_r	Vast_Lat_r	Bice_Fem_r	Tibi_Ant_r	Gast_Med_r	Sol_r	Gast_Lat_r	Pero_Lon_r
7.232	0.09442929833274083	0.2176838883580319	0.05774369591807055	0.06822134202049668	0.06188002101752255	0.01734450289814071	0.2430535518303409	0.04005413350141725	0.05153014257628804	0.1033842974330227	0.220837277387346	0.3793339967587618	0.3075495157485321	0.2987423098064554	0.03388995663614049	0.04710002886501084	0.09050689310153721	0.4366796195288279	0.1107856695725182	0.387443992337385
7.233000000000001	0.09469977780527547	0.218238265176655	0.05767472911337021	0.0685617443843248	0.06221735500658609	0.0177902177842033	0.2429426689243798	0.04007175143658695	0.05153329326786344	0.1045334297608037	0.2200676507499861	0.3777680477825045	0.3064991018567572	0.2954940202010121	0.03361830137651692	0.04671290987301265	0.0900716905405235	0.4418724933674373	0.1099498545837917	0.3837556149452241
7.234	0.09496556770743328	0.2188072550534055	0.05759914002928158	0.06890351045546046	0.06255977999181893	0.01826895409955213	0.242841904513913	0.04009378136647513	0.05153855497146242	0.10568847956503	0.2193060333721257	0.3762032405869289	0.3054132334228567	0.2922405168730768	0.0333486466945991	0.04632774304854561	0.08962503567916531	0.44700525128499	0.1091181932626621	0.380096594915049
7.235	0.09522634270555645	0.2193905689314559	0.05751697720850735	0.06924649642390615	0.06290704806541934	0.01877974480292909	0.2427507556415689	0.04012008868565405	0.05154603353625502	0.1068482094119613	0.2185528033851429	0.3746396752250901	0.3042929965728862	0.2889830283407817	0.03308117798423234	0.04594462997260629	0.08916748935328379	0.452074247435006	0.1082913621372665	0.3764696828605549
7.236000000000001	0.09548178025855167	0.2199878898543636	0.05742830132265076	0.0695905571743517	0.06325890993123837	0.01932161099953487	0.2426687159522968	0.04015053644838618	0.05155583599023714	0.1080113909644047	0.2178083137656273	0.3730774173345747	0.303139493612841	0.2857227638186342	0.0328160757234951	0.04556367067437576	0.08869964227652403	0.4570759503022642	0.1074700403055125	0.3728775514299687
7.237	0.09573156087070261	0.2205988730708599	0.05733318495400228	0.0699355462007616	0.06361511538873299	0.01989356265422349	0.2425952766882815	0.04018498557638914	0.05156807042994094	0.109176805342892	0.2170728920568868	0.3715164981284963	0.3019538408910385	0.2824609121394101	0.03255351533473311	0.04518496376692525	0.08822211489430537	0.4620069495001833	0.1066549095504851	0.3693227908989062
7.238	0.09597536834642048	0.2212231461876069	0.05723171236705511	0.07028131552257087	0.06397541382914435	0.02049459930019735	0.2425299276868342	0.0402232950665696	0.05158284590725359	0.110343243466021	0.2163468401533913	0.3699569144955397	0.3007371666501513	0.2791986407801956	0.03229366705580405	0.04480860657347955	0.08773555719928626	0.4668639624877804	0.1058466544711597	0.3658079050060382
7.239000000000001	0.0962128900476483	0.2218603093702708	0.05712397927072695	0.0706277156031975	0.06433955474344692	0.02112371074355742	0.2424721583795908	0.04026532219841324	0.05160027231357211	0.111509506369139	0.2156304341497837	0.3683986292129731	0.2994906088753229	0.2759370949950549	0.0320366958225292	0.04443469524287784	0.08724064850790025	0.4716438411845363	0.1050459626253354	0.3623353070404428
7.24	0.09644381715456841	0.2225099355932994	0.05701009257223527	0.07097459527168951	0.06470728824154603	0.02177987776407645	0.2424214587909395	0.0403109227407736	0.05162046026153246	0.1126744055006129	0.2149239242558044	0.3668415712755044	0.2982153131445909	0.2726773970558634	0.03178276116228319	0.04406332485303596	0.08673809719758512	0.4763435784606576	0.1042535246815014	0.3589073161884794
7.241000000000001	0.09666784493009868	0.2231715709386776	0.05689017012351926	0.0713218016484511	0.06507836558208832	0.02246207281259763	0.2423773205333768	0.04035995115787549	0.05164352096451505	0.1138367629953023	0.2142275347781522	0.3652856363418667	0.2969124304877157	0.26942064560193	0.03153201709857999	0.04369458950148708	0.08622864040451858	0.4809603144793823	0.1034700345761343	0.3555261541471122
7.242	0.09688467298845009	0.2238447349437023	0.05676434046103859	0.07166918007614141	0.06545253971212955	0.02316926070551462	0.2423392377975535	0.04041226081442408	0.05166956611406069	0.114995411925533	0.2135414641698652	0.3637306873002406	0.2955831152595555	0.2661679150981277	0.03128461206644465	0.04332858238243338	0.08571304368194263	0.4854913428669713	0.102696189672703	0.3521939420098268
7.243	0.0970940055678052	0.2245289209975538	0.05663274253971183	0.07201657405698515	0.0658295658158044	0.02390039931685327	0.2423067083350744	0.04046770417977554	0.05169870775525214	0.116149196530648	0.2128658851473023	0.3621765549531374	0.2942285230342528	0.2629202554003603	0.03104068883830633	0.04296539585011777	0.08519210061944028	0.4899341166848341	0.1019326909184438	0.3489126974306051
7.244000000000001	0.09729555180700637	0.2252235967862589	0.05649552546168259	0.07236382519781236	0.06620920187108228	0.02465444026853559	0.2422792344324847	0.04052613303116692	0.05173105816003801	0.1172969724268611	0.2122009448743545	0.3606230388221045	0.2928498085265104	0.2596786914263374	0.03080038446011711	0.04260512146863856	0.08466663242374083	0.4942862541769067	0.1011802429947919	0.345684332070875
7.245	0.09748902602602955	0.2259282047855515	0.05635284820052024	0.07271077316410995	0.06659120921365767	0.02543032961944629	0.2422563238751239	0.04058739865600052	0.0517667296984216	0.1184376067996195	0.2115467652132171	0.3590699080724089	0.2914481235460969	0.2564442229288181	0.03056383019738748	0.04224785004850763	0.08413748746171051	0.4985455442640399	0.1004395544572472	0.3425106493338991
7.246	0.09767414800994906	0.2266421628011072	0.05620487932137923	0.07305725564425133	0.06697535310697482	0.02622700855393066	0.2422374908995656	0.04065135205313804	0.05180583470742801	0.1195699785810464	0.21090344304091	0.3575169025575122	0.2900246149914913	0.2532178243677679	0.03033115149081999	0.04189367167029158	0.08360554076614418	0.5027099517559658	0.09971133786039421	0.3393933423906156
7.247	0.09785064329604067	0.2273648645555519	0.05605179669756519	0.07340310832492346	0.06736140331730012	0.02704341407033297	0.2422222571332509	0.04071784413310858	0.05184848535779983	0.120692978615278	0.2102710506307298	0.3559637339825368	0.2885804228883239	0.2500004448772569	0.03010246792120499	0.04154267569563992	0.08307169350486691	0.5067776222505236	0.09899630986379554	0.336333992500392
7.248	0.09801824346358887	0.2280956803215144	0.05589378722388326	0.07374816487861426	0.06774913469262926	0.02787847967014937	0.2422101525198128	0.04078672591709261	0.05189479351841742	0.1218055098145916	0.2096496360978574	0.3544100871850455	0.2871166784779676	0.2467930083223935	0.02987789318322031	0.04119495076598349	0.0825368724135276	0.5107468866893025	0.09829519131448733	0.3333340676294489
7.249000000000001	0.09817668642584108	0.2288339575998423	0.05573104652706858	0.07409225696384406	0.0681383277440773	0.02873113604833741	0.2422007162286055	0.04085784873449863	0.05194487061845141	0.1229064873091783	0.2090392239083264	0.3528556215304345	0.285634502361288	0.2435964134410991	0.02965753506776957	0.04085058478923091	0.08200202919233768	0.5146162655385099	0.09760870730180013	0.3303949213688404
7.25	0.09832571672339113	0.229579021841988	0.05556377867350735	0.07443521423862565	0.06852876922827449	0.0296003117852974	0.2421934975470202	0.04093106441888632	0.05199882750722165	0.1239948385933755	0.2084398154503757	0.3512999724182178	0.284135002702143	0.2404115340650564	0.02944149545251093	0.04050966491488973	0.08146813986687591	0.5183844725635177	0.09693758718023567	0.3275177921528789
7.251	0.09846508581810866	0.2303301772155184	0.05539219587435111	0.07477686438744409	0.06892025272919998	0.03048493404100706	0.2421880567541695	0.04100622550191015	0.05205677431169764	0.1250695036712148	0.2078513896668938	0.3497427528945224	0.2826192734947571	0.2372392194137163	0.02922987030025553	0.04017227749813231	0.08093620411295263	0.5220504181654778	0.0962825645562525	0.3247038027778724
7.252000000000001	0.09859455238657458	0.2310867074116943	0.05521651818800969	0.07511703316189518	0.06931257923783615	0.03138392925174273	0.2421839659744069	0.04108318540488192	0.05211882029157655	0.1261294352042261	0.2072739037472479	0.3481835553652611	0.2810883928985659	0.2340802944547948	0.02902274966493265	0.03983850805337352	0.0804072445454265	0.5256132122496777	0.09564437723521113	0.3219539602200742
7.253	0.09871388261183345	0.2318478764941353	0.05503697321990208	0.07545554443502796	0.06970555772801004	0.0322962238297626	0.2421808100088949	0.04116179862750977	0.05218507369193079	0.1271735986645298	0.2067072938763086	0.3466219534037691	0.2795434216435769	0.230935560324223	0.02882021770482861	0.03950844119795549	0.07988230597081744	0.5290721665987973	0.09502376712547045	0.3192691557508469
7.254	0.09882285047216229	0.2326129297876985	0.0548537958192743	0.07579222026938219	0.07009900572677567	0.03322074486626537	0.2421781871430209	0.04124192093339175	0.052255641593508	0.1282009724963058	0.2061514760379994	0.3450575036461855	0.2779854015086552	0.2278057947980161	0.02862235270282222	0.03918216058659798	0.07936245460357538	0.5324267967294166	0.09442148009758106	0.3166501653461201
7.255000000000001	0.09892123802556387	0.2333810948068305	0.05466722777286501	0.07612688099866349	0.07049274987765078	0.03415642083786977	0.2421757099269816	0.04132340953191872	0.05233062976087047	0.1292105482887623	0.2056063468702679	0.343489747767411	0.2764153538744034	0.2246917528079752	0.02842922709336151	0.03885974883738061	0.07884877724593005	0.535676823215246	0.09383826579743049	0.3140976503862146
7.256	0.09900883568888348	0.2341515822227383	0.05447751749518012	0.07645934532293139	0.07088662649493832	0.03510218231677988	0.2421730059265628	0.04140612325632675	0.05241014248864549	0.1302013309637394	0.2050717845680236	0.3419182145299019	0.2748342783515099	0.221594166992555	0.02824090749594652	0.03854128745012871	0.07834238043130456	0.5388221724644142	0.09327487741289538	0.3116121586409956
7.257000000000001	0.09908544251079622	0.2349235868687222	0.05428491971510255	0.07678943041709456	0.07128048210725257	0.03605696268470793	0.2421697184411859	0.04148992273768717	0.05249428244618357	0.1311723389810375	0.2045476498303194	0.3403424218968582	0.2732431514847141	0.2185137482737308	0.028057454754893	0.03822685671813465	0.07784438953127777	0.5418629769411319	0.09273207139404034	0.3091941255341514
7.258	0.09915086643834181	0.2356962887829172	0.05408969515852217	0.07711695205242719	0.07167417398824717	0.03701969885052613	0.2421655071865612	0.04157467057462363	0.05258315052087894	0.132122604564419	0.2040337868478737	0.3387618792006072	0.2716429255319167	0.2154511864504161	0.02787892398515364	0.03791653563416555	0.0773559478260442	0.5447995748251226	0.09221060712727705	0.3068438756791985
7.259	0.0992049245770911	0.2364688542875792	0.05389211022665807	0.07744172473075485	0.07206757067241476	0.03798933197151937	0.2421600489395709	0.04166023149853141	0.05267684566032349	0.1330511739509805	0.2035300243268719	0.3371760893563162	0.2700345273173959	0.2124071507989682	0.02770536462396516	0.03761040179170591	0.07687821553831883	0.5476325091057148	0.09171124656427214	0.3045616246786128
7.260000000000001	0.09924744344530118	0.2372404371039838	0.05369243666977978	0.07776356183090642	0.07246055245369745	0.03896480817802358	0.2421530381431623	0.04174647253406501	0.05277546471338406	0.1339571076662582	0.2030361765447576	0.3355845511106763	0.2684188571575452	0.2093822906715539	0.02753682048807118	0.03730853128236758	0.0764123688306949	0.5503625261112557	0.09123475380679845	0.3023474811763018
7.261	0.09927825922250219	0.2380101795018968	0.05349095125611471	0.07808227576698419	0.07285301186451466	0.03994507930117182	0.2421441874690245	0.04183326315466204	0.05287910227023611	0.1348394808271043	0.2025520444333616	0.3339867613149223	0.2667967878572085	0.2063772360835914	0.02737332983624148	0.03701099859036327	0.07595959876655621	0.5529905734782491	0.09078189464907439	0.3002014491524757
